@startuml
skinparam componentStyle rectangle

!include <tupadr3/font-awesome/database>

title Logical View


component "Mobile App" as APP {

component "User Interface (React Native)" as UI
component "Redux Store (Redux + Thunk)" as RES
interface " " as RES_
RES - RES_
component "Redux Actions" as REA
interface " " as REA_
REA - REA_


component "LS Service (Realm)" as MSRV
interface " " as MSRV_
MSRV_ - MSRV


component "Local Storage" as LS
interface " " as LS_
LS - LS_


REA_ )-- UI
LS_ )-- MSRV

}



component "Skip API (Kotlin + Spring framework)" as SA  {

component "Controller" as CTRL
component "Service" as SRV
interface " " as SRV_
SRV - SRV_


component "User Repositories" as UREP
interface " " as UREP_
UREP -- UREP_

component "Cache repositories" as CREP
interface " " as CREP_
CREP -- CREP_


component "Data Aggregator" as AGG{
component "Snow Conditions Collector" as SNA

component "Weather Collector" as WA

component "Resort Info Collector" as RA

component "Geo Collector" as GA
}
interface " " as AGG_
AGG - AGG_


}
interface " " as SA_








component "Info db (elasticsearch)" as IDB
interface " " as IDB_
IDB - IDB_

component "User db (mySQL)" as UDB
interface " " as UDB_
UDB - UDB_


component "Cache db (Redis)" as CDB
interface " " as CDB_
CDB - CDB_





component "External API" as EA{
component "weatherski" as AP1

component "skiapi" as AP2

component "onthesnow" as AP3

}
interface " " as EA_
EA_ -- EA







SRV_ )- CTRL
UREP_ )-- SRV
IDB_ )-- SRV
AGG_ )-- SRV
CREP_ )-- AGG
IDB_ )- AGG
EA_ )- AGG
RES_ )- REA

UDB_ )-- UREP
CDB_ )-- CREP
SA_ -- SA

SA_ )-  REA
MSRV_ )-- REA






skinparam monochrome true
skinparam shadowing false
skinparam defaultFontName Courier
@enduml
